<svg width="159" height="122" viewBox="0 0 159 122" fill="none" xmlns="http://www.w3.org/2000/svg">
<path d="M81.81 0.299879C85.5 0.309879 89.2 0.21988 92.88 0.56988C95.85 0.84988 98.85 0.989879 101.81 1.38988C104.5 1.75988 107.16 2.38988 109.84 2.91988C111.48 3.23988 113.11 3.57988 114.74 3.94988C117.65 4.61988 120.55 5.27988 123.35 6.39988C127.7 8.12988 130.23 9.51988 133.86 12.2199C135.99 13.8099 137.78 15.7299 139.64 17.5999C142.06 20.0399 144.11 22.7499 145.91 25.6799C146.46 26.5799 146.99 27.4899 147.42 28.4599C149.53 33.1999 151.68 37.9199 153.78 42.6699C154.27 43.7899 154.63 44.9799 155 46.1499C155.58 47.9899 156.11 49.8499 156.69 51.6899C157.04 52.8099 157.02 53.9599 157.02 55.0999C157.02 57.5699 157.13 59.9899 157.81 62.3999C158.24 63.9399 158.05 65.5799 157.84 67.1299C157.63 68.6199 157.61 70.1099 157.5 71.5999C157.45 72.2099 157.59 72.8899 157.37 73.4399C156.58 75.4199 156.54 77.5499 156.03 79.5799C155.55 81.4499 154.89 83.2799 154.68 85.2199C154.62 85.8199 154.32 86.3899 154.12 86.9699C154.01 87.2999 153.74 87.6299 153.76 87.9499C153.95 90.3499 152.23 92.2299 151.99 94.5099C151.96 94.8099 151.62 95.0999 151.38 95.3399C150.33 96.3999 149.27 97.4499 148.2 98.4899C147.82 98.8599 147.36 99.1599 147.05 99.5799C145.53 101.64 143.28 102.72 141.13 103.88C138.34 105.38 135.45 106.68 132.54 107.94C129.63 109.2 126.75 110.52 123.77 111.59C120.3 112.84 116.86 114.22 113.14 114.58C110.47 115.55 107.62 115.46 104.86 115.89C102.62 116.23 100.3 116 98.01 116.01C97.1 116.01 96.47 115.12 95.54 115.2C94.76 115.27 94.02 115.69 93.21 115.49C90.82 114.92 88.36 114.81 86 114C83.01 112.98 79.91 112.28 76.84 111.5C72.05 110.29 67.42 108.66 63.02 106.4C62.16 105.96 61.16 105.79 60.34 105.3C58.38 104.12 56.48 102.84 54.57 101.58C54.28 101.39 54.07 101.09 53.84 100.82C52.22 98.9699 50.62 97.1199 48.98 95.2799C48.7 94.9599 48.28 94.7699 47.94 94.4899C46.53 93.2999 45.12 92.1099 43.73 90.8899C43.41 90.6099 43.13 90.2399 42.93 89.8499C41.59 87.2199 39.43 85.2599 37.51 83.1099C37.23 82.7999 36.79 82.6299 36.43 82.3899C36.21 82.2399 36.13 82.0199 36.07 81.7399C35.78 80.4399 35.32 79.6699 34.38 79.0899C33.91 78.7999 33.45 78.4999 33.31 77.9799C32.69 75.6999 31.54 73.6099 30.95 71.2999C30.16 68.2399 29.04 65.2599 28.07 62.2499C27.72 61.1699 27.44 60.0999 27.36 58.9199C27.28 57.6299 26.94 56.2799 26.39 55.1099C25.24 52.6499 24.99 50.0199 24.78 47.3999C24.51 44.0599 24.53 40.7099 24.8 37.3699C25.04 34.5399 25.86 31.8399 26.72 29.1599C27.34 27.2299 27.95 25.2899 28.79 23.4599C31.16 18.2799 34.28 13.6299 38.85 10.0799C41.45 8.05988 44.36 6.60988 47.35 5.32988C51.32 3.62988 55.38 2.19988 59.68 1.54988C61.07 1.33988 62.46 1.03988 63.86 0.959879C68.34 0.699879 72.83 0.49988 77.32 0.31988C78.81 0.25988 80.31 0.31988 81.81 0.31988V0.299879Z" fill="#231F20"/>
<path d="M8.98 8.73991C9.72 8.65991 10.41 8.75991 11.11 8.98991C13.34 9.73991 15.56 10.5199 17.82 11.1899C19.24 11.6099 20.61 12.1099 21.97 12.7099C22.84 13.0999 23.81 13.2499 24.72 13.5499C25.14 13.6899 25.51 13.9599 25.93 14.0999C27.85 14.7199 29.78 15.3199 31.71 15.9199C33.09 16.3499 34.48 16.7599 35.88 17.1499C37.15 17.5099 38.43 17.8699 39.72 18.1899C41.77 18.7099 43.81 19.2199 45.87 19.6999C47.01 19.9699 48.18 20.1499 49.33 20.3799C49.95 20.5099 50.56 20.6699 51.18 20.8299C52.95 21.3099 54.77 21.5899 56.51 22.2399C57.72 22.6899 59.01 22.9299 60.24 23.3299C62.48 24.0599 64.71 24.7999 66.92 25.5999C68.62 26.2099 70.31 26.8799 71.97 27.5899C72.85 27.9699 73.67 28.4899 74.53 28.9299C75.14 29.2499 75.78 29.5399 76.39 29.8599C77.73 30.5599 79.05 31.2799 80.39 31.9699C81.14 32.3499 81.92 32.6699 82.69 33.0099C83.74 33.4799 84.78 33.9599 85.54 34.8599C85.61 34.9499 85.73 35.0099 85.84 35.0599C85.92 35.0899 86.01 35.0799 86.16 35.0999C86.21 34.8999 86.3 34.7099 86.3 34.5199C86.28 33.4599 86.22 32.4099 86.2 31.3499C86.16 29.2999 86.13 27.2399 86.12 25.1899C86.11 22.6499 86.17 20.1099 86.09 17.5699C86.02 15.2199 85.79 12.8799 85.67 10.5299C85.63 9.83991 85.75 9.14991 85.76 8.45991C85.79 6.27991 85.92 4.11991 86.35 1.97991C86.44 1.50991 86.63 1.05991 86.79 0.599914C86.9 0.299913 87.11 0.0799156 87.47 0.109916C87.86 0.149916 88.16 0.329917 88.26 0.739917C88.37 1.23992 88.46 1.74992 88.58 2.24992C88.88 3.50992 89.19 4.76991 89.49 6.02991C89.88 7.63991 90.28 9.24992 90.66 10.8699C91.13 12.8999 91.47 14.9599 92.04 16.9499C92.81 19.6199 93.48 22.3099 94.16 24.9899C94.65 26.9199 95.23 28.8199 95.63 30.7599C95.82 31.6899 96.12 32.5399 96.54 33.3899C96.79 33.8899 97.04 34.4499 97.07 34.9899C97.14 35.9799 97.81 36.6299 98.27 37.3799C98.66 38.0099 98.87 38.6799 99.17 39.3299C99.28 39.5799 99.35 39.8499 99.49 40.0699C99.69 40.3899 99.98 40.5099 100.35 40.3199C100.83 40.0699 101.33 39.8499 101.8 39.5699C103.16 38.7399 104.51 37.8899 105.86 37.0299C107.41 36.0399 108.93 35.0199 110.47 34.0099C110.6 33.9299 110.72 33.8399 110.85 33.7699C112.38 32.9799 113.78 32.0099 115.13 30.9299C116.28 30.0099 117.54 29.2399 118.75 28.3899C120.21 27.3799 121.65 26.3499 123.12 25.3599C123.99 24.7699 124.91 24.2499 125.8 23.6799C126.38 23.3099 126.93 22.8699 127.52 22.5099C129.14 21.5199 130.77 20.5299 132.42 19.5999C134.7 18.3099 137.04 17.1199 139.32 15.8199C141.33 14.6699 143.26 13.3699 145.27 12.2199C147.33 11.0399 149.33 9.71992 151.57 8.86992C152.02 8.69992 152.56 8.44992 152.91 8.89992C153.27 9.35992 152.89 9.80992 152.6 10.1899C151.83 11.2299 151.03 12.2499 150.28 13.3099C149.56 14.3099 148.9 15.3499 148.17 16.3499C147.2 17.6999 146.2 19.0199 145.21 20.3499C144.62 21.1499 144.03 21.9499 143.44 22.7499C142.99 23.3499 142.53 23.9499 142.08 24.5399C141.97 24.6799 141.8 24.8099 141.75 24.9699C141.57 25.5599 141.3 26.0599 140.69 26.3199C140.57 26.3699 140.41 26.5399 140.41 26.6599C140.39 27.3199 139.82 27.4899 139.44 27.8499C138.79 28.4699 138.21 29.1599 137.61 29.8199C137.35 30.1099 137.11 30.4299 136.83 30.6999C133.73 33.7499 130.64 36.8099 127.5 39.8199C126.28 40.9899 124.91 41.9899 123.68 43.1499C121.74 44.9599 119.84 46.8199 117.96 48.6899C116.64 50.0099 115.38 51.3899 114.1 52.7499C113.96 52.8999 113.83 53.0699 113.64 53.2899C114.47 54.3599 115.29 55.4299 116.11 56.4899C116.46 56.9399 116.85 57.3699 117.19 57.8299C118.31 59.3199 119.41 60.8299 120.54 62.3199C120.98 62.8999 121.45 63.4499 121.91 63.9999C123.99 66.4999 126.09 68.9999 128.16 71.5099C129.23 72.8099 130.27 74.1299 131.33 75.4399C131.37 75.4899 131.42 75.5299 131.46 75.5699C133.5 77.6299 135.22 79.9699 137.04 82.2199C137.77 83.1299 138.43 84.0999 139.37 84.8499C139.95 85.3099 140.37 85.9599 140.87 86.5199C141.66 87.4199 142.45 88.3299 143.26 89.2199C143.89 89.9099 144.59 90.5399 145.19 91.2499C145.8 91.9899 146.6 92.5199 147.16 93.3299C147.61 93.9899 148.26 94.5299 148.87 95.0699C150.32 96.3399 151.79 97.5899 153.28 98.8099C153.86 99.2799 154.51 99.6599 154.98 100.27C155.23 100.6 155.36 100.89 155.11 101.25C154.85 101.63 154.5 101.58 154.14 101.41C152.28 100.54 150.46 99.5899 148.75 98.4599C147.95 97.9299 147.09 97.4899 146.28 96.9699C145.32 96.3599 144.38 95.7099 143.42 95.0899C143.09 94.8799 142.75 94.6799 142.4 94.5099C140.95 93.8199 139.71 92.7999 138.34 91.9899C136.63 90.9799 135.03 89.7999 133.3 88.8299C132.09 88.1599 130.97 87.3399 129.8 86.5899C127.67 85.2199 125.53 83.8599 123.4 82.4899C122.79 82.0999 122.2 81.6899 121.59 81.2899C119.75 80.0799 117.91 78.8699 116.06 77.6799C114.9 76.9299 113.74 76.1399 112.54 75.4599C110.33 74.2199 108.1 73.0199 105.85 71.8499C105.2 71.5099 104.57 71.5499 103.94 72.0999C102.51 73.3499 101 74.5099 99.54 75.7399C98.9 76.2799 98.31 76.8999 97.7 77.4799C96.03 79.0499 94.35 80.6099 92.68 82.1799C91.23 83.5399 89.78 84.9099 88.34 86.2799C85.58 88.8999 82.81 91.4999 80.08 94.1599C79.22 94.9999 78.54 96.0199 77.7 96.8899C76.11 98.5499 74.48 100.15 72.86 101.79C70.82 103.86 68.48 105.58 66.26 107.44C63.9 109.42 61.54 111.39 59.2 113.4C58.38 114.11 57.65 114.92 56.85 115.65C56.11 116.32 55.3 116.91 54.56 117.57C53.16 118.82 51.79 120.09 50.41 121.35C50.17 121.57 49.94 121.76 49.62 121.52C49.33 121.31 49.3 120.92 49.57 120.55C50.7 118.99 51.84 117.44 52.97 115.87C53.23 115.5 53.48 115.12 53.7 114.72C54.46 113.34 55.44 112.12 56.33 110.84C57.96 108.48 59.46 106.04 61.06 103.66C62.76 101.13 64.5 98.6299 66.22 96.1199C67.17 94.7199 68.11 93.3199 69.04 91.9099C70.74 89.3399 72.42 86.7699 74.13 84.2099C75.71 81.8599 77.32 79.5199 78.92 77.1799C79.98 75.6399 81.03 74.0899 82.1 72.5599C82.58 71.8699 83.1 71.1999 83.58 70.4999C83.77 70.2199 83.91 69.8899 84.1 69.5199C83.85 69.4399 83.72 69.3699 83.58 69.3499C82.24 69.1099 80.9 68.9099 79.57 68.6499C74.92 67.7399 70.27 66.8299 65.62 65.8899C63.87 65.5399 62.14 65.1399 60.4 64.7199C58.26 64.2099 56.13 63.6499 53.99 63.1299C51.03 62.4099 48.06 61.7099 45.09 60.9899C43.77 60.6699 42.47 60.2799 41.15 59.9599C37.69 59.1199 34.22 58.2999 30.75 57.4699C28.78 56.9999 26.82 56.5199 24.86 56.0299C22.67 55.4799 20.47 54.9399 18.29 54.3199C14.72 53.3099 11.17 52.2299 7.60001 51.1999C6.32001 50.8299 5.02001 50.5699 3.74001 50.2099C2.84001 49.9599 1.96001 49.6499 1.07001 49.3699C0.720008 49.2599 0.429999 49.0199 0.529999 48.6599C0.589999 48.4299 0.9 48.1899 1.14 48.1099C1.56 47.9699 2.03 47.9299 2.47 47.8599C5.76 47.3299 9.06 47.0699 12.39 47.1599C13.63 47.1899 14.87 47.1299 16.11 47.1799C17.65 47.2399 19.18 47.3799 20.72 47.4699C21.53 47.5199 22.35 47.4999 23.16 47.5399C25.21 47.6599 27.26 47.7899 29.31 47.9199C31.72 48.0799 34.13 48.2499 36.53 48.3999C37.22 48.4399 37.92 48.3999 38.61 48.4199C40.63 48.4799 42.65 48.5699 44.68 48.6299C47.16 48.7099 49.64 48.6699 52.11 48.8599C56.15 49.1699 60.2 49.1599 64.24 49.2199C67.74 49.2699 71.24 49.2599 74.75 49.2799C75.99 49.2799 77.23 49.3299 78.47 49.3399C78.67 49.3399 78.87 49.2899 79.12 49.0999C78.64 48.8399 78.18 48.5499 77.68 48.3199C76.37 47.7099 75.03 47.1499 73.73 46.5299C72.56 45.9799 71.42 45.3699 70.26 44.7999C67.23 43.2899 64.21 41.7799 61.18 40.2899C59.83 39.6299 58.43 39.0499 57.08 38.3699C55.98 37.8099 54.93 37.1399 53.86 36.5199C52.53 35.7499 51.21 34.9699 49.87 34.2099C49.56 34.0299 49.21 33.8999 48.88 33.7499C48.72 33.6799 48.53 33.6299 48.39 33.5299C47.61 32.9599 46.85 32.3799 46.07 31.8099C45.85 31.6499 45.59 31.5599 45.35 31.4199C44.4 30.8399 43.46 30.2499 42.51 29.6699C41.92 29.3099 41.32 28.9599 40.73 28.5999C38.26 27.0899 35.79 25.5899 33.33 24.0699C31.25 22.7899 29.21 21.4399 27.11 20.1999C25.35 19.1599 23.52 18.2299 21.72 17.2399C21.33 17.0199 20.97 16.7399 20.58 16.5099C19.02 15.5999 17.43 14.7399 15.89 13.7899C14.07 12.6699 12.12 11.7499 10.43 10.4199C10.12 10.1799 9.77 9.99992 9.44 9.78992C9.05 9.53992 8.81999 9.22991 9.03999 8.70991L8.98 8.73991Z" fill="#FF40A4"/>
<path d="M118.01 63.5C117.89 62.16 117.77 61.11 117.7 60.05C117.54 57.66 117.03 55.35 116.36 53.06C115.85 51.3 115.05 49.8 113.66 48.54C112.71 47.68 111.99 46.54 111.23 45.48C109.62 43.24 107.85 41.19 105.55 39.62C104.84 39.14 104.18 38.68 103.29 38.73C102.3 38.79 101.46 38.28 100.54 38.04C95.12 36.65 89.65 35.57 84 35.69C82.25 35.73 80.74 36.19 79.35 37.19C78.38 37.89 77.49 38.65 76.7 39.56C73.22 43.56 71.51 48.32 70.61 53.43C70.14 56.12 70.84 58.59 72.41 60.85C74.05 63.21 76.05 65.23 78.11 67.2C81.71 70.65 85.77 73.19 90.91 73.6C91.62 73.66 92.33 73.76 93.02 73.92C97.7 74.99 102.44 75.14 107.21 74.83C108.15 74.77 109.08 74.51 110.02 74.4C111.64 74.21 112.62 73.27 113.01 71.75C113.62 69.38 114.93 67.42 116.43 65.55C116.95 64.9 117.44 64.23 118.01 63.48V63.5Z" fill="white"/>
<path d="M99.07 54.6198C99.07 54.9098 99.09 55.5298 99.07 56.1398C99.05 56.8898 98.65 57.4798 98.1 57.9398C97.15 58.7298 95.1 58.8598 94.12 58.0998C93.05 57.2798 92.2 56.2898 92.27 54.7998C92.31 53.9298 92.19 53.0598 92.52 52.1898C93.14 50.5898 94.65 49.5698 96.26 50.0198C99.21 50.8398 99.24 50.9398 99.18 53.7698C99.18 53.9498 99.14 54.1198 99.09 54.6198H99.07Z" fill="black"/>
</svg>
