<svg width="195" height="42" viewBox="0 0 195 42" fill="none" xmlns="http://www.w3.org/2000/svg">
<path d="M190.571 2.82738C182.637 2.46102 174.953 2.15932 167.048 1.93951C152.28 1.53437 137.332 1.31887 122.264 1.21112C113.239 1.14647 104.184 1.12061 95.2086 0.995615C85.6033 0.862004 76.038 0.659438 66.5127 0.448246C53.4955 0.159475 40.4183 0.0905074 27.271 0.185328C20.4772 0.232738 13.7335 0.232741 6.99976 0.107751C5.00866 0.0689604 2.99753 0.0387902 0.676248 0C0.566187 0.176711 0.4061 0.323246 0.396094 0.465477C0.366078 1.38351 0.396097 2.29724 0.336064 3.21528C0.296042 3.77558 -0.104178 4.33588 0.0258943 4.89618C0.286038 5.97369 0.746306 7.05551 1.22657 8.13302C1.6368 9.03381 2.29716 9.9346 2.65736 10.8354C3.00755 11.6974 3.36774 12.5594 3.26768 13.4171C3.04756 15.3351 3.31771 17.2487 4.17819 19.1624C4.64845 20.214 4.82856 21.2657 4.78854 22.3173C4.74852 23.2871 4.25824 24.2568 3.93806 25.2266C3.68793 25.9895 3.40776 26.7523 3.1176 27.5152C2.90749 28.0712 2.46724 28.6272 2.45723 29.1875C2.41721 30.6788 2.59734 32.17 2.60734 33.6613C2.61735 35.0707 2.5673 36.4757 2.46725 37.8851C2.40722 38.7859 2.12707 39.691 2.09705 40.5918C2.08704 40.9668 2.47727 41.3461 2.69739 41.7469C4.79855 41.7167 6.50949 41.6995 8.19042 41.665C15.0342 41.5314 21.898 41.5142 28.7918 41.5918C33.2843 41.6392 37.7868 41.7124 42.2793 41.6995C49.4833 41.6823 56.6773 41.6133 63.8612 41.553C79.4199 41.4237 94.8084 41.6736 110.257 41.8417C117.751 41.9236 125.295 42.0184 132.789 41.9969C149.889 41.9452 166.958 41.846 184.068 41.9409C187.33 41.9581 190.621 41.8676 194.023 41.8245C194.103 41.609 194.233 41.4452 194.213 41.2814C194.003 40.066 193.693 38.8463 193.563 37.6308C193.433 36.4283 193.393 35.2215 193.433 34.019C193.473 32.6786 193.473 31.3382 192.573 30.0021C191.982 29.1185 191.472 28.222 191.722 27.3385C192.132 25.9033 192.873 24.468 194.043 23.0414C195.644 21.0976 195.154 19.1624 193.183 17.2315C192.783 16.8393 192.673 16.4427 192.653 16.0462C192.623 15.4859 192.913 14.9256 192.863 14.3653C192.783 13.5162 192.533 12.6715 192.342 11.8224C192.002 10.3225 192.963 8.81831 191.842 7.31411C191.122 6.35298 191.472 5.37891 191.242 4.41346C191.122 3.89626 190.792 3.37906 190.541 2.82306L190.571 2.82738Z" fill="#FF40A4"/>
</svg>
